<svg width="50" height="47" viewBox="0 0 50 47" fill="none" xmlns="http://www.w3.org/2000/svg">
<path d="M25.0012 14.6875C19.8349 14.6875 15.6258 18.6439 15.6258 23.5C15.6258 28.3561 19.8349 32.3125 25.0012 32.3125C30.1675 32.3125 34.3767 28.3561 34.3767 23.5C34.3767 18.6439 30.1675 14.6875 25.0012 14.6875ZM49.0649 22.0771L39.8164 17.7352L43.088 8.51875C43.5275 7.27031 42.2677 6.08613 40.9493 6.5084L31.1441 9.58359L26.515 0.88125C25.8899 -0.29375 24.1125 -0.29375 23.4875 0.88125L18.8681 9.57441L9.05317 6.49922C7.72498 6.08613 6.46516 7.27031 6.9144 8.50957L10.186 17.726L0.937545 22.0771C-0.312515 22.6646 -0.312515 24.3354 0.937545 24.9229L10.186 29.2648L6.9144 38.4904C6.47492 39.7389 7.73475 40.923 9.05317 40.5008L18.8583 37.4256L23.4777 46.1187C24.1027 47.2937 25.8802 47.2937 26.5052 46.1187L31.1246 37.4256L40.9297 40.5008C42.2579 40.9139 43.5177 39.7297 43.0685 38.4904L39.7969 29.274L49.0453 24.932C50.3149 24.3354 50.3149 22.6646 49.0649 22.0771ZM33.8395 31.8076C28.9662 36.3883 21.0362 36.3883 16.1629 31.8076C11.2896 27.227 11.2896 19.773 16.1629 15.1924C21.0362 10.6117 28.9662 10.6117 33.8395 15.1924C38.7128 19.773 38.7128 27.227 33.8395 31.8076Z" fill="#FED50D"/>
</svg>
